<svg width="24" height="24" viewBox="0 0 24 24" fill="none" xmlns="http://www.w3.org/2000/svg">
    <path d="M3 16L7 12M21 16L17 12M12 12L17 12M12 12L7 12M12 12V8" stroke="#a4c639" stroke-width="2" stroke-linecap="round" stroke-linejoin="round"/>
    <path d="M6 20C7.10457 20 8 19.1046 8 18C8 16.8954 7.10457 16 6 16C4.89543 16 4 16.8954 4 18C4 19.1046 4.89543 20 6 20Z" stroke="#a4c639" stroke-width="2"/>
    <path d="M18 20C19.1046 20 20 19.1046 20 18C20 16.8954 19.1046 16 18 16C16.8954 16 16 16.8954 16 18C16 19.1046 16.8954 20 18 20Z" stroke="#a4c639" stroke-width="2"/>
</svg> 